<svg width="21" height="21" viewBox="0 0 21 21" fill="none" xmlns="http://www.w3.org/2000/svg">
<path d="M10.5 0C4.70098 0 0 4.58937 0 10.2507C0 15.912 4.70098 20.5014 10.5 20.5014C16.299 20.5014 21 15.912 21 10.2507C21 4.58937 16.299 0 10.5 0ZM5.95732 8.55118C5.59924 8.55127 5.24917 8.44769 4.9514 8.25354C4.65362 8.05939 4.4215 7.78339 4.28441 7.46044C4.14732 7.1375 4.1114 6.78212 4.1812 6.43924C4.251 6.09637 4.42339 5.78141 4.67656 5.53419C4.92973 5.28696 5.25231 5.11859 5.6035 5.05036C5.9547 4.98213 6.31873 5.0171 6.64956 5.15086C6.9804 5.28462 7.26317 5.51115 7.46212 5.80181C7.66107 6.09247 7.76726 6.4342 7.76726 6.78377C7.76713 7.25241 7.57642 7.70182 7.23703 8.03323C6.89764 8.36465 6.43735 8.55095 5.95732 8.55118ZM10.5 17.4195C10.142 17.4195 9.7921 17.3159 9.49445 17.1217C9.19681 16.9275 8.96483 16.6516 8.82784 16.3287C8.69085 16.0058 8.65501 15.6506 8.72484 15.3078C8.79468 14.9651 8.96706 14.6502 9.22018 14.4031C9.47331 14.156 9.79581 13.9877 10.1469 13.9195C10.498 13.8513 10.8619 13.8863 11.1926 14.0201C11.5234 14.1538 11.806 14.3803 12.0049 14.6709C12.2038 14.9614 12.3099 15.3031 12.3099 15.6525C12.3099 16.1212 12.1192 16.5706 11.7798 16.902C11.4404 17.2333 10.98 17.4195 10.5 17.4195ZM10.5 12.9847C10.142 12.9847 9.7921 12.881 9.49445 12.6869C9.19681 12.4927 8.96483 12.2168 8.82784 11.8939C8.69085 11.571 8.65501 11.2157 8.72484 10.873C8.79468 10.5302 8.96706 10.2154 9.22018 9.96827C9.47331 9.72116 9.79581 9.55287 10.1469 9.48469C10.498 9.41652 10.8619 9.45151 11.1926 9.58524C11.5234 9.71898 11.806 9.94546 12.0049 10.236C12.2038 10.5266 12.3099 10.8682 12.3099 11.2177C12.3101 11.4499 12.2634 11.6798 12.1726 11.8943C12.0817 12.1088 11.9484 12.3038 11.7803 12.468C11.6122 12.6322 11.4126 12.7625 11.1929 12.8514C10.9733 12.9403 10.7378 12.986 10.5 12.986V12.9847ZM10.5 8.54984C10.1419 8.54993 9.79185 8.44635 9.49408 8.2522C9.1963 8.05805 8.96418 7.78205 8.82709 7.4591C8.68999 7.13616 8.65408 6.78078 8.72388 6.4379C8.79368 6.09503 8.96607 5.78007 9.21924 5.53285C9.47241 5.28562 9.79499 5.11725 10.1462 5.04902C10.4974 4.98079 10.8614 5.01576 11.1922 5.14952C11.5231 5.28328 11.8058 5.50981 12.0048 5.80047C12.2037 6.09113 12.3099 6.43286 12.3099 6.78243C12.3101 7.01461 12.2634 7.24454 12.1726 7.4591C12.0817 7.67366 11.9484 7.86863 11.7803 8.03289C11.6123 8.19714 11.4127 8.32746 11.193 8.41639C10.9733 8.50532 10.7378 8.55112 10.5 8.55118V8.54984ZM15.0427 8.54984C14.6846 8.54984 14.3346 8.44619 14.0369 8.25198C13.7392 8.05777 13.5071 7.78174 13.3701 7.45879C13.2331 7.13584 13.1972 6.78047 13.2671 6.43763C13.3369 6.09479 13.5094 5.77986 13.7625 5.53269C14.0157 5.28551 14.3383 5.11718 14.6895 5.04899C15.0407 4.98079 15.4047 5.01579 15.7355 5.14956C16.0663 5.28333 16.349 5.50987 16.548 5.80052C16.7469 6.09116 16.8531 6.43287 16.8531 6.78243C16.8533 7.01465 16.8066 7.24462 16.7157 7.4592C16.6248 7.67379 16.4914 7.86879 16.3233 8.03305C16.1552 8.19731 15.9555 8.32761 15.7358 8.41652C15.5161 8.50542 15.2805 8.55118 15.0427 8.55118V8.54984Z" fill="#EB531F"/>
</svg>
