<svg width="24" height="23" viewBox="0 0 24 23" fill="none" xmlns="http://www.w3.org/2000/svg">
<path d="M11.5 0C5.15 0 0 5.02772 0 11.227C0 16.4011 3.37 20.7943 8.05 22.3563C8.62 22.4539 8.83 22.1122 8.83 21.8193C8.83 21.5558 8.82 20.6966 8.82 19.7887C5.66 20.4428 4.84 18.3341 4.84 18.3341C4.28 16.9576 3.48 16.5964 3.48 16.5964C2.36 15.8447 3.56 15.8642 3.56 15.8642C4.8 15.9423 5.46 17.1235 5.46 17.1235C6.56 18.9589 8.35 18.4317 9.06 18.1291C9.17 17.3578 9.49 16.8307 9.84 16.528C7.32 16.2449 4.67 15.2882 4.67 10.651C4.67 9.33302 5.15 8.25913 5.94 7.41955C5.82 7.12668 5.38 5.94541 6.06 4.35411C6.06 4.35411 7.08 4.03194 8.81 5.17416C9.79 4.91057 10.82 4.7739 11.85 4.76413C12.88 4.7739 13.91 4.91057 14.89 5.17416C16.62 4.03194 17.64 4.35411 17.64 4.35411C18.32 5.94541 17.88 7.12668 17.76 7.41955C18.55 8.25913 19.03 9.33302 19.03 10.651C19.03 15.2979 16.37 16.2352 13.84 16.5085C14.28 16.8795 14.67 17.6117 14.67 18.7344C14.67 20.3354 14.65 21.3703 14.65 21.8193C14.65 22.1122 14.86 22.4637 15.44 22.3563C20.13 20.7943 23.5 16.4011 23.5 11.227C23.5 5.02772 18.35 0 11.5 0Z" fill="#2B2B2B"/>
</svg>
