<svg width="109" height="85" viewBox="0 0 109 85" fill="none" xmlns="http://www.w3.org/2000/svg">
<g clip-path="url(#clip0_255_286)">
<path d="M43.1045 70.8337C38.8604 68.5284 6.56053 54.7194 2.79844 28.9455C0.987065 16.5358 9.43768 7.50287 20.0988 6.92164C26.8642 6.4216 34.3028 23.9188 36.8428 27.9352C38.6071 23.2905 41.1425 3.85 47.8382 2.87266C58.2207 0.382257 67.9442 6.7624 69.7556 19.1721C73.5177 44.946 46.5126 67.4114 43.1045 70.8337Z" fill="#F2D6D0" stroke="#2B2B2B" stroke-width="2.3" stroke-linecap="round" stroke-linejoin="round"/>
</g>
<path d="M85.1855 79.1988C84.0663 77.4797 74.794 65.7916 78.5997 55.4042C80.4321 50.4028 85.4148 48.7375 89.5143 50.6759C92.1423 51.8569 91.3831 59.8962 91.5198 61.9099C93.1179 60.5318 97.9953 53.7832 100.694 54.7719C105.075 55.9408 107.417 60.2897 105.585 65.291C101.779 75.6784 87.1503 78.6096 85.1855 79.1988Z" fill="#F2D6D0" stroke="#2B2B2B" stroke-width="2.3" stroke-linecap="round" stroke-linejoin="round"/>
<defs>
<clipPath id="clip0_255_286">
<rect width="76.5831" height="75.7203" fill="white"/>
</clipPath>
</defs>
</svg>
